<svg id="channel_handup_speech_24" viewBox="0 0 24 24" fill="none" xmlns="http://www.w3.org/2000/svg"><circle cx="13.5498" cy="6.75" r="4" stroke="currentColor" stroke-width="1.5" stroke-linecap="square"></circle><path fill-rule="evenodd" clip-rule="evenodd" d="M4.46878 6.61072C4.29872 6.22742 3.85181 6.05107 3.46597 6.21481C3.08194 6.37778 2.89989 6.8177 3.05651 7.20443L4.57082 10.9437L4.5752 10.9545L4.57924 10.9654C4.6868 11.2568 4.79666 11.5352 4.90509 11.7923C4.93723 11.8686 4.97175 11.9468 5.00858 12.0268L5.01587 12.0426L5.02242 12.0588L5.09755 12.2443C5.12291 12.3069 5.15437 12.3641 5.1907 12.416L5.21877 12.456L5.24141 12.4993C5.62513 13.2339 6.13898 14.0407 6.68985 14.8325C6.69392 14.8286 6.698 14.8248 6.70208 14.8209C6.91356 15.0972 7.29091 15.5886 7.61372 16.0001C7.61761 16.0051 7.62152 16.0101 7.62546 16.0151C6.72799 16.9134 6.15959 18.1405 6.1165 19.5001H21.1112C21.0232 16.7238 18.7449 14.5001 15.9472 14.5001H15.9381H15.929H15.9198H15.9107H15.9016H15.8925H15.8834H15.8743H15.8652H15.856H15.8469H15.8378H15.8287H15.8196H15.8105H15.8014H15.7922H15.7831H15.774H15.7649H15.7558H15.7467H15.7376H15.7284H15.7193H15.7102H15.7011H15.692H15.6829H15.6738H15.6646H15.6555H15.6464H15.6373H15.6282H15.6191H15.61H15.6008H15.5917H15.5826H15.5735H15.5644H15.5553H15.5462H15.537H15.5279H15.5188H15.5097H15.5006H15.4915H15.4823H15.4732H15.4641H15.455H15.4459H15.4368H15.4277H15.4185H15.4094H15.4003H15.3912H15.3821H15.373H15.3639H15.3547H15.3456H15.3365H15.3274H15.3183H15.3092H15.3001H15.2909H15.2818H15.2727H15.2636H15.2545H15.2454H15.2363H15.2271H15.218H15.2089H15.1998H15.1907H15.1816H15.1725H15.1633H15.1542H15.1451H15.136H15.1269H15.1178H15.1087H15.0995H15.0904H15.0813H15.0722H15.0631H15.054H15.0448H15.0357H15.0266H15.0175H15.0084H14.9993H14.9902H14.981H14.9719H14.9628H14.9537H14.9446H14.9355H14.9264H14.9172H14.9081H14.899H14.8899H14.8808H14.8717H14.8626H14.8534H14.8443H14.8352H14.8261H14.817H14.8079H14.7988H14.7896H14.7805H14.7714H14.7623H14.7532H14.7441H14.735H14.7258H14.7167H14.7076H14.6985H14.6894H14.6803H14.6712H14.662H14.6529H14.6438H14.6347H14.6256H14.6165H14.6073H14.5982H14.5891H14.58H14.5709H14.5618H14.5527H14.5435H14.5344H14.5253H14.5162H14.5071H14.498H14.4889H14.4797H14.4706H14.4615H14.4524H14.4433H14.4342H14.4251H14.4159H14.4068H14.3977H14.3886H14.3795H14.3704H14.3613H14.3521H14.343H14.3339H14.3248H14.3157H14.3066H14.2975H14.2883H14.2792H14.2701H14.261H14.2519H14.2428H14.2337H14.2245H14.2154H14.2063H14.1972H14.1881H14.179H14.1698H14.1607H14.1516H14.1425H14.1334H14.1243H14.1152H14.106H14.0969H14.0878H14.0787H14.0696H14.0605H14.0514H14.0422H14.0331H14.024H14.0149H14.0058H13.9967H13.9876H13.9784H13.9693H13.9602H13.9511H13.942H13.9329H13.9238H13.9146H13.9055H13.8964H13.8873H13.8782H13.8691H13.86H13.8508H13.8417H13.8326H13.8235H13.8144H13.8053H13.7962H13.787H13.7779H13.7688H13.7597H13.7506H13.7415H13.7323H13.7232H13.7141H13.705H13.6959H13.6868H13.6777H13.6685H13.6594H13.6503H13.6412H13.6321H13.623H13.6139H13.6047H13.5956H13.5865H13.5774H13.5683H13.5592H13.5501H13.5409H13.5318H13.5227H13.5136H13.5045H13.4954H13.4863H13.4771H13.468H13.4589H13.4498H13.4407H13.4316H13.4225H13.4133H13.4042H13.3951H13.386H13.3769H13.3678H13.3587H13.3495H13.3404H13.3313H13.3222H13.3131H13.304H13.2948H13.2857H13.2766H13.2675H13.2584H13.2493H13.2402H13.231H13.2219H13.2128H13.2037H13.1946H13.1855H13.1764H13.1672H13.1581H13.149H13.1399H13.1308H13.1217H13.1126H13.1034H13.0943H13.0852H13.0761H13.067H13.0579H13.0488H13.0396H13.0305H13.0214H13.0123H13.0032H12.9941H12.985H12.9758H12.9667H12.9576H12.9485H12.9394H12.9303H12.9212H12.912H12.9029H12.8938H12.8847H12.8756H12.8665H12.8573H12.8482H12.8391H12.83H12.8209H12.8118H12.8027H12.7935H12.7844H12.7753H12.7662H12.7571H12.748H12.7389H12.7297H12.7206H12.7115H12.7024H12.6933H12.6842H12.6751H12.6659H12.6568H12.6477H12.6386H12.6295H12.6204H12.6113H12.6021H12.593H12.5839H12.5748H12.5657H12.5566H12.5475H12.5383H12.5292H12.5201H12.511H12.5019H12.4928H12.4837H12.4745H12.4654H12.4563H12.4472H12.4381H12.429H12.4198H12.4107H12.4016H12.3925H12.3834H12.3743H12.3652H12.356H12.3469H12.3378H12.3287H12.3196H12.3105H12.3014H12.2922H12.2831H12.274H12.2649H12.2558H12.2467H12.2376H12.2284H12.2193H12.2102H12.2011H12.192H12.1829H12.1738H12.1646H12.1555H12.1464H12.1373H12.1282H12.1191H12.11H12.1008H12.0917H12.0826H12.0735H12.0644H12.0553H12.0462H12.037H12.0279H12.0188H12.0097H12.0006H11.9915H11.9823H11.9732H11.9641H11.955H11.9459H11.9368H11.9277H11.9185H11.9094H11.9003H11.8912H11.8821H11.873H11.8639H11.8547H11.8456H11.8365H11.8274H11.8183H11.8092H11.8001H11.7909H11.7818H11.7727H11.7636H11.7545H11.7454H11.7363H11.7271H11.718H11.7089H11.6998H11.6907H11.6816H11.6725H11.6633H11.6542H11.6451H11.636H11.6269H11.6178H11.6087H11.5995H11.5904H11.5813H11.5722H11.5631H11.554H11.5448H11.5357H11.5266H11.5175H11.5084H11.4993H11.4902H11.481H11.4719H11.4628H11.4537H11.4446H11.4355H11.4264H11.4172H11.4081H11.399H11.3899H11.3808H11.3717H11.3626H11.3534H11.3443H11.3352H11.3261H11.317H11.3079H11.2988H11.295C10.3305 14.3837 9.73496 14.1967 9.50855 14.0835L8.61337 13.5001L8.59586 13.5094C7.55991 12.757 6.72584 11.5438 5.90557 9.69243C5.69065 9.25729 5.49608 8.86629 5.31558 8.51611L5.30556 8.49666L5.29669 8.47666L4.46878 6.61072ZM3.93271 13.2335C4.40591 14.1324 5.04133 15.1063 5.69518 16.0256C5.01136 17.0724 4.61386 18.3232 4.61386 19.6668C4.61386 20.4032 5.21081 21.0001 5.94719 21.0001H6.11386H21.2805C22.0169 21.0001 22.6139 20.4032 22.6139 19.6668C22.6139 15.9849 19.6291 13.0001 15.9472 13.0001H11.4195C10.8846 12.9304 10.4294 12.8129 10.0139 12.6149C9.08014 12.1701 8.23415 11.2493 7.27093 9.07112L7.26451 9.05659L7.25747 9.04236C7.04333 8.60872 6.84488 8.20963 6.65896 7.84842L5.83988 6.00238C5.33774 4.87064 4.01979 4.35031 2.88 4.834C1.74224 5.31683 1.20226 6.6219 1.6662 7.76748L3.17615 11.496C3.28969 11.803 3.40644 12.0988 3.52291 12.3751C3.55954 12.462 3.59815 12.5496 3.63853 12.6377L3.70724 12.8074C3.76868 12.9591 3.84451 13.1016 3.93271 13.2335Z" fill="currentColor"></path></svg>